<svg width="660" height="156" viewBox="0 0 660 156" fill="none" xmlns="http://www.w3.org/2000/svg">
<g clip-path="url(#clip0_2218_18358)">
<path d="M259.605 61.8039L259.494 112.301L243.527 112.258C243.29 112.258 243.101 112.065 243.101 111.831L243.253 61.7734" fill="white"/>
<path d="M211.575 54.758C211.338 54.758 211.148 54.5671 211.148 54.3313L211.192 42.3058L291.291 42.4935C291.528 42.4935 291.717 42.6844 291.717 42.9202L291.709 54.5174C291.709 54.7516 291.517 54.9441 291.283 54.9441" fill="white"/>
<path d="M328.02 73.5326L328.044 111.918C328.044 112.123 327.877 112.29 327.669 112.29L312.369 112.282C312.12 112.282 311.918 112.08 311.918 111.831V42.3956C332.12 42.3956 352.353 42.402 372.62 42.4165C379.688 42.4165 387.34 44.7523 387.812 53.2468C387.987 56.4313 388.019 61.6515 387.908 68.9059C387.844 73.1957 387.777 75.546 387.713 75.9566C385.735 88.0928 370.85 85.9271 362.659 85.7699L395.399 112.336L372.511 112.269C372.028 112.261 371.609 112.094 371.253 111.762L331.607 73.9305C331.458 73.7877 331.56 73.539 331.766 73.5406L366.538 73.8711C370.322 73.8503 372.212 72.0743 372.204 68.545C372.198 65.6397 372.201 62.7151 372.219 59.7777C372.233 56.9125 369.915 54.5655 367.048 54.5511C353.683 54.4837 340.806 54.4725 328.418 54.5158C328.201 54.5158 328.023 54.6906 328.023 54.9104L328.012 73.5326" fill="white"/>
<path d="M437.519 42.4036H421.165V112.29H437.519V42.4036Z" fill="white"/>
<path d="M528.393 73.0834C529.742 73.0834 533.687 70.645 533.687 68.1728L533.708 59.513C533.719 56.7906 531.369 54.5735 528.457 54.5591L490.175 54.4308C490.064 54.4308 489.976 54.519 489.973 54.6297L489.525 111.6C489.525 112.059 489.297 112.291 488.834 112.291L473.598 112.28C473.491 112.28 473.402 112.192 473.402 112.084V42.4598C473.402 42.4133 473.441 42.3716 473.491 42.3716C491.664 42.4325 511.304 42.4213 532.405 42.3427C541.753 42.2994 549.657 44.5871 549.449 55.5826C549.353 60.713 549.37 65.6028 549.502 70.2599C549.645 75.3551 548.557 78.7737 546.465 81.0293C543.479 84.2506 539.347 85.056 532.206 85.056C507.441 85.056 503.227 84.9854 503.227 84.9854L503.219 73.223C503.219 73.223 519.459 73.085 528.393 73.085" fill="white"/>
<path d="M659.753 100.235C659.764 106.821 654.435 112.17 647.848 112.182L585.261 112.291C578.675 112.303 573.33 106.973 573.317 100.386L573.235 54.4163C573.224 47.8309 578.553 42.4823 585.141 42.4727L647.727 42.362C654.313 42.3507 659.658 47.6801 659.671 54.2671L659.753 100.237V100.235ZM643.547 54.8655H589.575V99.1028H643.547V54.8655Z" fill="white"/>
<path d="M91.5371 27.1199C91.6157 26.9771 91.5692 26.7974 91.4344 26.7188C91.3911 26.6947 91.343 26.6803 91.2964 26.6803L46.9709 26.6915C46.48 26.6915 46.026 26.4333 45.7741 26.0129L30.6941 0.376943C30.6267 0.253415 30.6733 0.0994067 30.7936 0.0352365C30.8321 0.0143812 30.8722 0.00315144 30.9139 0.00315144C70.6128 -0.00326558 108.497 -5.70702e-05 144.566 0.0143812C159.67 0.0143812 171.309 11.1495 173.5 26.0226C173.558 26.4701 173.365 26.6931 172.921 26.6931H124.458C124.092 26.6931 123.752 26.8889 123.568 27.2049C113.31 44.7025 103.105 62.075 92.9504 79.3143C90.9339 82.7233 86.2992 83.7854 83.0201 81.7816C81.6533 80.941 80.4453 79.5902 79.3913 77.7261C77.2528 73.9336 75.1239 70.3449 73.0144 66.9615C71.4053 64.3835 71.3203 61.8456 72.7593 59.3558C79.2276 48.1533 85.4874 37.4096 91.5355 27.1199" fill="#F9CF00"/>
<path d="M77.8688 115.572C81.9885 122.599 91.8659 122.191 95.867 115.364C109.814 91.5596 123.686 67.8856 137.488 44.3448C137.584 44.1779 137.765 44.0753 137.959 44.0753H168.787C168.901 44.0785 168.992 44.1747 168.986 44.2886C168.986 44.3207 168.978 44.3528 168.962 44.3801C150.123 76.4235 131.136 108.764 111.999 141.407C102.717 157.246 81.0693 159.601 67.3224 148.246C65.0925 146.403 62.5177 142.987 59.5964 137.998C41.3383 106.752 22.7306 75.0406 3.77632 42.8609C-3.99469 29.6707 0.822884 13.9666 12.789 4.9475C12.8805 4.88012 13.0024 4.90418 13.0585 5.00044C34.1465 40.9261 55.751 77.7839 77.8688 115.574" fill="white"/>
</g>
<defs>
<clipPath id="clip0_2218_18358">
<rect width="659.753" height="155.316" fill="white"/>
</clipPath>
</defs>
</svg>
