<svg width="660" height="156" viewBox="0 0 660 156" fill="none" xmlns="http://www.w3.org/2000/svg">
<g clip-path="url(#clip0_2218_18361)">
<path d="M259.605 61.804L259.494 111.873C259.494 112.11 259.305 112.301 259.066 112.301L243.524 112.256C243.287 112.256 243.096 112.065 243.096 111.828L243.25 61.7703" fill="black"/>
<path d="M211.576 54.758C211.342 54.758 211.147 54.5687 211.147 54.3313L211.192 42.7357C211.192 42.4983 211.383 42.3074 211.621 42.3074L291.294 42.4919C291.529 42.4919 291.723 42.6844 291.723 42.9186L291.712 54.5174C291.712 54.7516 291.521 54.9457 291.283 54.9457" fill="black"/>
<path d="M328.022 73.5342L328.046 111.919C328.046 112.125 327.876 112.29 327.672 112.29L312.37 112.28C312.122 112.28 311.923 112.078 311.923 111.829V42.394C332.124 42.394 352.356 42.4005 372.621 42.4149C379.691 42.4149 387.34 44.7523 387.812 53.2436C387.987 56.4297 388.021 61.6531 387.91 68.9076C387.844 73.1989 387.78 75.5476 387.714 75.9567C385.816 87.5843 372.074 86.0843 363.723 85.8004C363.007 85.7699 362.927 85.9816 363.482 86.4356L394.532 111.634C395.108 112.101 395.025 112.335 394.28 112.335L372.512 112.269C372.031 112.263 371.609 112.094 371.253 111.764L332.39 74.6797C331.963 74.2706 332.257 73.5455 332.85 73.5519L366.538 73.8727C370.324 73.8519 372.212 72.076 372.206 68.545C372.196 65.768 372.203 62.9782 372.217 60.1708C372.244 56.4441 370.385 54.5703 366.638 54.5495C353.418 54.4837 340.678 54.4725 328.416 54.5174C328.2 54.5174 328.022 54.6923 328.022 54.9088L328.01 73.5326" fill="black"/>
<path d="M421.528 42.4053H437.158C437.357 42.4053 437.52 42.5689 437.52 42.7678V111.929C437.52 112.128 437.357 112.291 437.158 112.291H421.528C421.329 112.291 421.165 112.128 421.165 111.929V42.7678C421.165 42.5689 421.329 42.4053 421.528 42.4053Z" fill="black"/>
<path d="M528.394 73.0834C529.741 73.0834 533.688 70.645 533.688 68.1744V68.1712L533.709 59.513C533.72 56.7906 531.371 54.5719 528.459 54.5607L490.604 54.4308C490.256 54.4308 489.975 54.7099 489.972 55.0548L489.529 111.6C489.529 112.06 489.298 112.291 488.838 112.291L474.03 112.28C473.685 112.28 473.406 112.001 473.406 111.656V42.8865C473.406 42.5448 473.578 42.3732 473.92 42.3732C491.975 42.4325 511.472 42.4213 532.406 42.3411C541.757 42.2962 549.658 44.5887 549.45 55.581C549.355 60.7114 549.373 65.6028 549.502 70.2583C549.645 75.3502 548.558 78.7721 546.466 81.0277C543.479 84.249 539.348 85.0544 532.21 85.0544C507.444 85.0544 503.229 84.9838 503.229 84.9838L503.22 73.2246C503.22 73.2246 519.46 73.085 528.394 73.085" fill="black"/>
<path d="M659.754 99.8087C659.765 106.63 654.246 112.169 647.422 112.182L585.693 112.293C578.87 112.304 573.329 106.782 573.316 99.9611L573.239 54.8446C573.228 48.0234 578.747 42.4839 585.571 42.471L647.3 42.3635C654.123 42.3523 659.66 47.8709 659.673 54.6954L659.754 99.8087ZM643.547 55.2618C643.547 55.0452 643.369 54.8671 643.153 54.8671H589.972C589.755 54.8671 589.577 55.0452 589.577 55.2618V98.7082C589.577 98.928 589.755 99.1028 589.972 99.1028H643.153C643.369 99.1028 643.547 98.928 643.547 98.7082V55.2618Z" fill="black"/>
<path d="M91.5368 27.1215C91.617 26.9788 91.5689 26.7975 91.4325 26.7205C91.3908 26.6964 91.3427 26.682 91.2962 26.682L46.9706 26.6932C46.4813 26.6932 46.0257 26.4349 45.777 26.013L30.6954 0.3754C30.6264 0.253476 30.6714 0.0994678 30.7965 0.0336933C30.8318 0.012838 30.8703 0.00321247 30.912 0.00321247C70.6125 -0.00320455 108.499 3.96493e-06 144.567 0.0144423C159.669 0.0144423 171.308 11.1528 173.503 26.0258C173.559 26.4718 173.367 26.6932 172.921 26.6932H124.705C124.188 26.6932 123.707 26.9691 123.442 27.4183C113.228 44.8453 103.063 62.144 92.9501 79.316C90.9336 82.725 86.2989 83.787 83.0214 81.7833C81.6562 80.9427 80.4434 79.5887 79.3926 77.7278C77.2525 73.9353 75.1253 70.3466 73.0141 66.9648C71.405 64.3852 71.3216 61.8488 72.7622 59.3574C79.2289 48.1565 85.4855 37.4112 91.5368 27.1231" fill="#F9CF00"/>
<path d="M77.8705 115.574C81.9918 122.599 91.8676 122.196 95.867 115.365C109.773 91.6318 123.606 68.0284 137.363 44.5582C137.552 44.2373 137.834 44.0769 138.21 44.0769H168.788C168.904 44.0801 168.994 44.178 168.991 44.2903C168.987 44.3223 168.979 44.356 168.963 44.3817C150.126 76.4235 131.14 108.765 112.003 141.404C102.717 157.243 81.071 159.599 67.3257 148.246C65.0958 146.404 62.521 142.987 59.5997 137.996C41.3384 106.755 22.7291 75.0422 3.7764 42.8609C-3.90798 29.8167 0.717085 14.3196 12.3896 5.25392C12.7634 4.96355 13.0698 5.0197 13.3105 5.42878C34.3182 41.2181 55.8377 77.9331 77.8689 115.574" fill="black"/>
</g>
<defs>
<clipPath id="clip0_2218_18361">
<rect width="659.753" height="155.316" fill="white"/>
</clipPath>
</defs>
</svg>
